<?xml version="1.0" encoding="utf-8"?>
<!-- Generator: Adobe Illustrator 25.2.1, SVG Export Plug-In . SVG Version: 6.00 Build 0)  -->
<svg version="1.1" id="Layer_1" xmlns="http://www.w3.org/2000/svg" xmlns:xlink="http://www.w3.org/1999/xlink" x="0px" y="0px"
	 viewBox="0 0 1489.33 792" style="enable-background:new 0 0 1489.33 792;" xml:space="preserve">
<style type="text/css">
	.st0{fill:#A7A9AC;}
</style>
<g>
	<path class="st0" d="M595.59,666.75c4.73,0.58,7.05,3.38,4.93,8.89l-7.34,18.46l-9.47-22.71c-1.16-2.71,1.16-4.64,4.93-4.64v-3.77
		h-31.31v3.77c2.61,0.39,5.02,1.74,6.47,5.22l19.71,43.68c-3.67,5.7-7.83,5.6-15.46,5.6c-5.12,0-7.34,2.61-7.34,6.28
		c0,3.19,2.13,5.6,7.63,5.6c12.95,0,19.23-15.46,22.03-21.64l17.49-37.78c1.45-3.38,3.96-6.18,7.34-6.96v-3.77h-19.62V666.75z
		 M538.1,666.75c4.73,0.58,7.05,3.38,4.93,8.89l-7.34,18.46l-9.47-22.71c-1.16-2.71,1.16-4.64,4.93-4.64v-3.77h-31.31v3.77
		c2.61,0.39,5.02,1.74,6.47,5.22l18.07,40.1h8.21l17.78-38.36c1.45-3.38,3.96-6.18,7.34-6.96v-3.77H538.1V666.75z M469.59,700.76
		c-2.9,0-5.89-1.26-5.89-5.02c0-3.48,2.51-5.02,5.89-5.8l5.02-1.16v11.02C473.07,700.37,471.23,700.76,469.59,700.76 M497.81,706.85
		c-3.67,0-4.73-1.26-4.73-5.99v-18.94c0-12.85-5.02-20.39-18.75-20.39c-7.83,0-17.1,3.19-25.32,7.63v6.86
		c6.47-1.55,12.27-2.42,16.23-2.42c7.25,0,9.37,3.77,9.37,9.47v1.64l-10.05,2.13c-9.86,2.03-17.39,5.12-17.39,14.3
		c0,6.86,4.25,11.5,11.6,11.5c7.83,0,12.66-5.22,15.85-10.53v1.06c0,5.6,1.93,9.57,10.92,9.57c6.38,0,11.4-2.22,14.01-3.67v-2.22
		C498.87,706.85,498.29,706.94,497.81,706.85 M418.28,667.13c3.77,0,5.6,4.15,5.6,10.24c0,1.45-0.1,2.9-0.29,4.25h-12.46
		C411.42,673.51,413.55,667.13,418.28,667.13 M441.86,682.3c0.1-1.06,0.19-2.22,0.19-3.19c0-11.69-7.25-17.59-20.58-17.59
		c-18.94,0-28.21,12.37-28.21,27.83c0,15.27,8.99,23.38,23.96,23.38c10.73,0,17.78-3.96,22.61-8.5v-5.6
		c-4.44,1.55-8.7,2.22-13.24,2.22c-10.82,0-14.98-4.93-15.46-14.59h27.64L441.86,682.3z M383.01,648.77
		c0.87-0.48,1.93-0.68,3.19-0.77v-3.67h-30.53V648c1.26,0.1,2.22,0.39,3.09,0.87c1.45,0.87,2.32,2.22,2.32,4.54v20.48h-24.64v-20.48
		c0-2.32,0.77-3.87,2.22-4.64c0.87-0.48,1.93-0.68,3.19-0.77v-3.67h-30.53V648c1.26,0.1,2.22,0.39,3.09,0.87
		c1.45,0.87,2.32,2.22,2.32,4.54v48.8c0,2.32-0.77,3.87-2.22,4.64c-0.87,0.48-1.93,0.68-3.19,0.77v3.67h30.53v-3.67
		c-1.26-0.1-2.22-0.39-3.09-0.87c-1.45-0.87-2.32-2.22-2.32-4.54v-23.58h24.64v23.58c0,2.32-0.77,3.87-2.22,4.64
		c-0.87,0.48-1.93,0.68-3.19,0.77v3.67h30.53v-3.67c-1.26-0.1-2.22-0.39-3.09-0.87c-1.45-0.87-2.32-2.22-2.32-4.54v-48.8
		C380.79,651.09,381.57,649.55,383.01,648.77 M253.73,700.76c-2.9,0-5.89-1.26-5.89-5.02c0-3.48,2.51-5.02,5.89-5.8l5.02-1.16v11.02
		C257.21,700.37,255.37,700.76,253.73,700.76 M281.94,706.85c-3.67,0-4.73-1.26-4.73-5.99v-18.94c0-12.85-5.02-20.39-18.75-20.39
		c-7.83,0-17.1,3.19-25.32,7.63v6.86c6.47-1.55,12.27-2.42,16.23-2.42c7.25,0,9.37,3.77,9.37,9.47v1.64l-10.05,2.13
		c-9.86,2.03-17.39,5.12-17.39,14.3c0,6.86,4.25,11.5,11.6,11.5c7.83,0,12.66-5.22,15.85-10.53v1.06c0,5.6,1.93,9.57,10.92,9.57
		c6.38,0,11.4-2.22,14.01-3.67v-2.22C283.01,706.85,282.43,706.94,281.94,706.85 M209.38,666.75c4.73,0.58,7.05,3.38,4.93,8.89
		l-7.34,18.46l-9.47-22.71c-1.16-2.71,1.16-4.64,4.93-4.64v-3.77h-31.31v3.77c2.61,0.39,5.02,1.74,6.47,5.22l18.07,40.1h8.21
		l17.78-38.36c1.45-3.38,3.96-6.18,7.34-6.96v-3.77h-19.62V666.75z M140.87,700.76c-2.9,0-5.89-1.26-5.89-5.02
		c0-3.48,2.51-5.02,5.89-5.8l5.02-1.16v11.02C144.35,700.37,142.51,700.76,140.87,700.76 M169.09,706.85
		c-3.67,0-4.73-1.26-4.73-5.99v-18.94c0-12.85-5.02-20.39-18.75-20.39c-7.83,0-17.1,3.19-25.32,7.63v6.86
		c6.47-1.55,12.27-2.42,16.23-2.42c7.25,0,9.37,3.77,9.37,9.47v1.64l-10.05,2.13c-9.86,2.03-17.39,5.12-17.39,14.3
		c0,6.86,4.25,11.5,11.6,11.5c7.83,0,12.66-5.22,15.85-10.53v1.06c0,5.6,1.93,9.57,10.92,9.57c6.38,0,11.4-2.22,14.01-3.67v-2.22
		C170.15,706.85,169.57,706.94,169.09,706.85 M110.24,688.87c-3.67,11.02-8.02,17.1-19.04,17.1H85.7v-52.56
		c0-2.32,0.77-3.87,2.22-4.64c0.87-0.48,1.93-0.68,3.19-0.77v-3.67H60.57V648c1.26,0.1,2.22,0.39,3.09,0.87
		c1.45,0.87,2.32,2.22,2.32,4.54v47.54c0,2.61-0.39,4.35-1.45,5.41c-0.87,0.77-2.13,1.16-3.96,1.26v3.67h52.18l1.55-22.03
		L110.24,688.87z"/>
	<path class="st0" d="M485.82,586.84c-9.28,0-12.66-7.05-12.66-17.49c0-11.02,3.96-17.39,11.98-17.39c2.61,0,5.12,0.68,7.34,1.74
		v31.6C489.98,586.35,488.14,586.84,485.82,586.84 M507.18,527.99c0-4.15-1.16-5.99-5.7-5.99c-4.83,0-12.27,2.03-16.04,3.38v3.38
		c1.64-0.1,3.38-0.19,4.54,0c2.13,0.29,2.51,1.16,2.51,3.96v14.2c-2.03-0.39-4.15-0.58-6.28-0.58c-14.4,0-27.54,9.47-27.54,26.86
		c0,13.53,7.63,23.58,18.84,23.58c6.57,0,11.31-3.48,14.98-8.5c0.19,4.93,2.42,8.31,10.44,8.31c5.22,0,8.99-1.55,11.5-2.8v-2.42
		c-5.02,0.29-7.25-0.58-7.25-5.99V527.99z M432,586.35c0,2.51-0.77,4.06-2.42,4.73c-0.87,0.39-2.22,0.58-3.58,0.68v3.58h26.67v-3.58
		c-1.64-0.1-2.71-0.39-3.58-0.77c-1.55-0.77-2.42-2.13-2.42-4.64v-58.36c0-4.15-1.26-5.99-5.89-5.99c-4.64,0-12.17,2.03-15.94,3.38
		v3.38c1.26-0.1,2.8-0.19,3.77-0.19c2.9,0.19,3.38,1.16,3.38,4.15V586.35z M404.47,572.44c0,12.17-2.8,18.75-9.37,18.75
		c-7.83,0-10.44-9.18-10.44-21.35c0-10.82,2.03-17.88,9.18-17.88C401.57,551.96,404.47,560.17,404.47,572.44 M420.12,569.25
		c0-14.4-9.28-22.9-23.38-22.9c-15.75,0-27.73,10.53-27.73,27.06c0,15.27,10.15,23.38,23.96,23.38
		C410.07,596.79,420.12,584.23,420.12,569.25 M324.85,590.32v-27.06h3.29c13.14,0,16.91,6.47,16.91,13.43
		c0,8.5-4.83,13.62-15.75,13.62H324.85z M328.42,533.4c7.44,0,12.08,3.77,12.08,12.66c0,7.73-3.77,12.66-13.62,12.66h-2.03V533.4
		H328.42z M341.08,559.88c10.44-2.03,16.62-8.41,16.62-15.56c0-9.66-8.41-15.94-24.35-15.94h-31.02v3.77
		c1.64,0.19,3.19,0.39,4.15,0.77c1.55,0.68,2.42,2.13,2.42,4.64v48.6c0,2.51-0.77,3.96-2.42,4.73c-0.97,0.39-2.8,0.58-4.15,0.68
		v3.77h31.98c14.59,0,27.44-6.18,27.44-19.13c0-8.99-6.57-15.46-20.68-16.04V559.88z M245.71,586.55c-3.96,0-6.67-1.84-6.67-5.8
		c0-3.67,2.8-5.31,7.73-6.47l5.51-1.35V585C250.44,585.87,247.93,586.55,245.71,586.55 M272.47,591.38c-3.87,0-5.51-1.26-5.51-5.99
		V565.1c0-12.46-5.12-18.65-16.81-18.65c-7.25,0-15.85,2.71-23.09,6.47v5.99c5.7-1.35,11.5-2.22,15.65-2.22
		c7.44,0,9.57,3.38,9.57,10.05v1.93l-10.73,2.42c-9.86,2.22-16.04,5.8-16.04,13.91c0,7.05,4.64,11.5,11.69,11.5
		c6.76,0,11.89-4.25,15.07-9.18v0.39c0,5.31,1.64,8.89,10.05,8.89c5.02,0,9.37-1.55,11.79-2.8v-2.42
		C273.54,591.38,272.96,591.48,272.47,591.38 M202.71,551.18c4.73,0.58,7.15,3.38,4.93,8.89l-8.12,19.91l-9.57-24.16
		c-1.16-2.71,1.16-4.64,4.93-4.64v-3.48h-27.44v3.48c2.61,0.39,5.02,1.74,6.47,5.22l17.3,39.71h6.47l17.01-37.97
		c1.45-3.38,3.96-6.18,7.34-6.96v-3.48h-19.33V551.18z M137.97,586.55c-3.96,0-6.67-1.84-6.67-5.8c0-3.67,2.8-5.31,7.73-6.47
		l5.51-1.35V585C142.71,585.87,140.2,586.55,137.97,586.55 M164.74,591.38c-3.87,0-5.51-1.26-5.51-5.99V565.1
		c0-12.46-5.12-18.65-16.81-18.65c-7.25,0-15.85,2.71-23.09,6.47v5.99c5.7-1.35,11.5-2.22,15.65-2.22c7.44,0,9.57,3.38,9.57,10.05
		v1.93l-10.73,2.42c-9.86,2.22-16.04,5.8-16.04,13.91c0,7.05,4.64,11.5,11.69,11.5c6.76,0,11.89-4.25,15.07-9.18v0.39
		c0,5.31,1.64,8.89,10.05,8.89c5.02,0,9.37-1.55,11.79-2.8v-2.42C165.8,591.38,165.22,591.48,164.74,591.38 M108.6,573.79
		c-3.67,11.02-7.54,16.43-17.97,16.43h-7.25v-52.66c0-2.51,0.68-3.96,2.32-4.73c0.97-0.39,2.9-0.58,4.25-0.68v-3.77H60.86v3.77
		c1.64,0.19,3.29,0.39,4.15,0.77c1.55,0.77,2.42,2.13,2.42,4.64v47.83c0,2.71-0.48,4.35-1.93,5.22c-0.97,0.58-3,0.87-4.64,0.97v3.77
		h50.05l1.35-21.16L108.6,573.79z"/>
	<path class="st0" d="M660.13,475.14c-1.64-0.68-2.51-2.03-2.51-4.73v-23.09c0-11.6-4.54-16.33-13.14-16.33
		c-6.76,0-12.46,3.38-17.39,8.21c-1.84-5.8-5.89-8.21-12.17-8.21c-6.18,0-11.5,3.29-16.23,7.83v-1.84c0-4.06-1.16-5.99-5.41-5.99
		c-3.77,0-10.34,1.64-13.53,2.8v3.38c0.87-0.1,2.71-0.19,3.77-0.19c3.09,0,3.67,0.97,3.67,3.96v29.47c0,2.71-0.68,4.15-2.51,4.73
		c-0.97,0.48-2.61,0.58-3.96,0.68v3.58h24.45v-3.58c-2.03-0.19-3.09-0.29-3.96-0.68c-1.74-0.68-2.51-2.03-2.51-4.73v-29.18
		c3.29-1.26,5.7-1.93,8.6-1.93c7.63,0,9.37,3.96,9.37,11.21v19.91c0,2.71-0.68,4.15-2.51,4.73c-0.97,0.48-2.61,0.58-3.96,0.68v3.58
		h24.45v-3.58c-1.93-0.19-3.09-0.29-3.96-0.68c-1.74-0.68-2.51-2.03-2.51-4.73v-23.09c0-2.32-0.19-4.35-0.58-6.18
		c3.58-1.16,5.99-1.84,9.18-1.84c7.73,0,9.37,3.96,9.37,11.21v19.91c0,2.71-0.68,4.15-2.51,4.73c-0.97,0.48-2.61,0.58-3.87,0.68
		v3.58h24.35v-3.58C662.16,475.62,661,475.52,660.13,475.14 M567.95,436.97c0-4.06-1.26-5.99-5.41-5.99
		c-3.77,0-10.34,1.64-13.62,2.8v3.38c1.06-0.1,2.9-0.19,3.96-0.19c3,0,3.58,0.97,3.58,3.96v29.47c-3.48,1.16-5.8,1.84-8.89,1.84
		c-7.54,0-9.37-3.67-9.37-10.73v-24.54c0-4.06-1.26-5.99-5.41-5.99c-3.77,0-10.34,1.64-13.62,2.8v3.38c0.87-0.1,2.71-0.19,3.77-0.19
		c3.19,0,3.77,0.87,3.77,3.96v23.58c0,11.6,4.54,16.23,13.04,16.23c6.67,0,11.79-3,16.72-7.63c0.29,4.44,2.71,7.44,9.95,7.44
		c4.06,0,6.86-1.06,9.28-2.13v-2.61c-5.02,0.29-7.73-0.58-7.73-5.99V436.97z M515.58,479.39v-3.58c-2.03-0.19-3.09-0.29-3.96-0.68
		c-1.74-0.68-2.51-2.03-2.51-4.73v-33.43c0-4.06-1.16-5.99-5.41-5.99c-3.77,0-10.34,1.64-13.53,2.8v3.38
		c0.97-0.1,2.8-0.19,3.96-0.19c2.9,0,3.48,0.97,3.48,3.96v29.47c0,2.71-0.68,4.15-2.51,4.73c-0.97,0.48-2.61,0.58-3.96,0.68v3.58
		H515.58z M502.93,419.38c3.67,0,6.96-2.03,6.96-6.67c0-4.73-3.29-6.76-6.96-6.76c-3.58,0-6.86,2.03-6.86,6.76
		C496.06,417.35,499.35,419.38,502.93,419.38 M458.67,472.14c-10.15,0-13.91-6.96-13.91-18.26c0-10.53,3.58-17.3,12.46-17.3
		c3.58,0,6.86,1.06,9.57,2.51v31.02C463.6,471.66,461.47,472.14,458.67,472.14 M485.92,475.81c-5.02,0.29-7.63-0.58-7.63-5.99
		v-57.88c0-3.96-1.26-5.89-5.31-5.89c-3.96,0-10.44,1.64-13.72,2.8v3.38c1.26-0.1,3.29-0.29,4.44-0.19c2.51,0.1,3.09,1.06,3.09,3.96
		v15.75c-2.32-0.48-4.73-0.77-7.15-0.77c-14.49,0-25.99,9.86-25.99,26.38c0,14.01,7.92,23.48,18.36,23.48
		c5.7,0,10.53-2.71,14.78-7.44c0.39,4.25,2.71,7.15,9.95,7.15c4.06,0,6.86-1.06,9.28-2.13L485.92,475.81z M405.62,436.58
		c5.89,0,8.89,4.54,8.89,11.31c0,0.87,0,1.64-0.1,2.51H394.9C395.67,442.28,399.05,436.58,405.62,436.58 M425.91,451.27
		c0.1-1.45,0-2.9,0-4.15c-0.77-10.44-7.15-16.14-17.2-16.14c-15.17,0-24.83,11.02-24.83,27.06c0,14.01,7.54,22.8,21.55,22.8
		c6.57,0,13.53-2.03,18.46-6.09v-4.93c-4.93,1.64-9.66,2.32-13.43,2.32c-10.82,0-15.36-5.89-15.75-16.62h28.79L425.91,451.27z
		 M370.36,416.97c0.97-0.48,3.67-0.58,4.93-0.68v-3.87h-19.91l-20.19,38.36l-19.91-38.36h-20.97v3.87c2.42,0.19,4.93,0.58,5.99,1.35
		c1.74,0.97,2.42,2.61,2.42,5.7v43.29c0,4.06-1.55,6.38-3.77,7.54c-1.64,0.87-3.48,1.35-5.51,1.64v3.58h24.93v-3.58
		c-2.42-0.29-4.54-0.97-6.18-2.03c-1.93-1.26-3.09-3.38-3.09-7.15v-41.55l21.16,40.87h3.67l21.16-40.97v45.12
		c0,2.61-0.77,4.15-2.51,4.73c-1.06,0.48-3.67,0.58-5.02,0.68v3.87h27.73v-3.87c-1.93-0.19-4.06-0.29-4.93-0.68
		c-1.74-0.68-2.51-2.03-2.51-4.73V421.7C367.84,419.09,368.52,417.55,370.36,416.97 M238.65,472.05c-4.83,0-7.25-2.32-7.25-6.38
		c0-3.96,3.09-5.6,9.18-7.15l6.09-1.55v13.14C244.65,471.18,241.46,472.05,238.65,472.05 M264.26,475.91
		c-3.96,0-6.09-1.26-6.09-6.09v-21.45c0-12.08-5.31-17.1-15.36-17.1c-6.67,0-14.78,2.13-21.06,5.51v5.12
		c4.93-1.16,10.92-2.03,15.07-2.03c7.54,0,9.86,3,9.86,10.73v2.03l-11.4,2.71c-9.76,2.22-14.98,6.38-14.98,13.62
		c0,7.15,5.12,11.5,11.89,11.5c5.99,0,11.4-3.48,14.49-8.31v0.1c0,4.93,1.35,8.31,9.18,8.31c3.96,0,7.63-1.06,10.05-2.13v-2.61
		C265.23,475.91,264.74,475.91,264.26,475.91 M196.91,435.42c4.73,0.58,7.25,3.48,4.93,8.89l-8.7,21.16l-9.86-25.41
		c-0.97-2.71,1.16-4.64,4.93-4.64v-3h-23.96v3c2.61,0.39,5.02,1.74,6.47,5.22l16.62,39.52h4.83l16.43-37.78
		c1.45-3.38,3.96-6.18,7.34-6.96v-3h-19.04V435.42z M135.36,472.05c-4.83,0-7.25-2.32-7.25-6.38c0-3.96,3.09-5.6,9.18-7.15
		l6.09-1.55v13.14C141.35,471.18,138.17,472.05,135.36,472.05 M160.97,475.91c-3.96,0-6.09-1.26-6.09-6.09v-21.45
		c0-12.08-5.31-17.1-15.36-17.1c-6.67,0-14.78,2.13-21.06,5.51v5.12c4.93-1.16,10.92-2.03,15.07-2.03c7.54,0,9.86,3,9.86,10.73v2.03
		l-11.4,2.71c-9.76,2.22-14.98,6.38-14.98,13.62c0,7.15,5.12,11.5,11.89,11.5c5.99,0,11.4-3.48,14.49-8.31v0.1
		c0,4.93,1.35,8.31,9.18,8.31c3.96,0,7.63-1.06,10.05-2.13v-2.61C161.94,475.91,161.45,475.91,160.97,475.91 M107.25,458.61
		c-3.67,11.02-7.15,15.85-17.1,15.85h-8.79V421.7c0-2.61,0.77-4.15,2.51-4.73c1.06-0.48,3.67-0.58,5.02-0.68v-3.87H61.15v3.87
		c1.93,0.19,4.06,0.29,4.93,0.68c1.74,0.68,2.51,2.03,2.51,4.73v48.02c0,2.8-0.58,4.25-2.22,5.02c-1.06,0.48-3.77,0.68-5.22,0.77
		v3.87h48.12l1.35-20.39L107.25,458.61z"/>
	<path class="st0" d="M614.81,315.61c-4.73,0-8.89,2.8-12.85,6.86v-1.06c0-3.87-1.16-5.8-4.93-5.8c-3.09,0-8.79,1.26-11.6,2.22v3.38
		c0.87-0.1,3.09-0.29,4.25-0.29c2.9,0,3.48,0.97,3.48,3.96v29.57c0,2.8-0.68,4.25-2.61,4.83c-1.06,0.39-2.9,0.48-4.25,0.58v3.58
		h24.45v-3.58c-2.22-0.19-5.31-0.29-6.18-0.58c-1.84-0.58-2.61-1.93-2.61-4.83v-29.18c3.09-1.55,4.83-2.42,6.76-2.42
		c3.87,0,3.09,4.35,7.54,4.35c3.87,0,5.6-2.9,5.6-5.31C621.87,317.35,618.48,315.61,614.81,315.61 M555.48,357.35
		c-5.6,0-7.83-2.71-7.83-6.96c0-4.06,3.29-5.8,10.44-7.63l6.47-1.64v13.82C562.34,356.19,558.67,357.35,555.48,357.35
		 M580.03,360.34c-4.15,0-6.67-1.26-6.67-6.09v-22.51c0-11.69-5.41-15.85-14.01-15.85c-6.18,0-13.82,1.84-19.42,4.73v4.44
		c4.35-0.97,10.34-1.84,14.59-1.84c7.73,0,10.05,2.71,10.05,11.11v2.22l-11.89,2.9c-9.76,2.42-14.01,6.86-14.01,13.43
		c0,7.25,5.41,11.5,11.98,11.5c5.22,0,10.82-2.8,13.91-7.34c0.1,4.44,1.35,7.44,8.5,7.44c3.09,0,6.18-0.58,8.5-1.55v-2.71
		C580.99,360.34,580.51,360.34,580.03,360.34 M516.16,354.45c0,2.8-0.68,4.25-2.61,4.83c-1.06,0.39-2.9,0.48-4.25,0.58v3.58h22.51
		v-3.58c-2.22-0.19-3.38-0.29-4.25-0.58c-1.84-0.58-2.61-1.93-2.61-4.83v-58.56c0-3.87-1.16-5.8-4.93-5.8
		c-3.09,0-8.79,1.26-11.6,2.22v3.38c0.87-0.1,3.09-0.29,4.25-0.29c2.9,0,3.48,0.97,3.48,3.96V354.45z M496.93,321.4
		c0-3.87-1.16-5.8-4.93-5.8c-3.09,0-8.79,1.26-11.6,2.22v3.38c0.87-0.1,3.09-0.29,4.25-0.29c2.9,0,3.48,0.97,3.48,3.96v30.34
		c-4.06,1.35-6.86,2.13-10.44,2.13c-7.73,0-9.66-3.48-9.66-10.63V321.4c0-3.87-1.16-5.8-4.93-5.8c-3.09,0-8.79,1.26-11.6,2.22v3.38
		c0.87-0.1,3.09-0.29,4.25-0.29c2.9,0,3.48,0.97,3.48,3.96v24.16c0,11.5,4.73,15.75,12.56,15.75c6.28,0,11.6-2.8,16.33-7.05
		c0.39,4.06,2.9,6.76,9.66,6.76c3.09,0,5.02-0.58,7.34-1.55v-2.71c-5.02,0.29-8.21-0.58-8.21-5.99V321.4z M425.24,360.73
		c8.6,0,11.6,3.19,11.6,8.02c0,7.34-6.67,11.21-15.07,11.21c-8.7,0-12.95-4.06-12.95-10.15c0-3.19,1.16-6.47,4.93-9.37
		c1.16,0.19,2.42,0.29,3.77,0.29H425.24z M421.66,340.92c-5.6,0-9.47-3.96-9.47-10.34c0-6.09,3.58-10.34,8.7-10.34
		c4.73,0,9.37,3.67,9.37,10.92C430.26,337.15,426.98,340.92,421.66,340.92 M448.72,317.15c0-2.42-1.84-3.77-4.25-3.77
		c-4.15,0-4.35,5.22-8.7,7.25c-3.48-3.29-8.7-5.02-14.11-5.02c-10.82,0-18.75,6.96-18.75,15.94c0,6.09,3.67,10.15,8.99,12.27
		c-3.38,2.32-6.47,5.41-6.47,8.89c0,2.61,1.16,5.51,5.31,7.05c-5.8,2.61-10.53,5.99-10.53,11.98c0,6.96,6.28,13.53,18.75,13.53
		c16.43,0,26.77-11.21,26.77-20.68c0-8.31-7.92-11.79-19.91-11.79h-7.44c-3.77,0-5.41-1.55-5.41-3.67c0.1-1.35,0.77-2.8,1.93-4.35
		c2.13,0.48,4.44,0.77,6.86,0.77c9.18,0,18.26-5.6,18.26-15.17c0-2.9-0.87-5.41-2.32-7.44
		C441.95,322.66,448.72,321.31,448.72,317.15 M374.61,321.21c6.76,0,10.24,4.64,10.24,11.69c0,0.58,0,1.26-0.1,1.84h-22.13
		C363.59,326.62,367.45,321.21,374.61,321.21 M393.64,335.71c0.1-1.64,0-3.19-0.1-4.64c-0.97-9.95-7.05-15.46-15.85-15.46
		c-13.72,0-23.48,10.44-23.48,26.67c0,13.53,6.96,22.61,20.58,22.61c4.93,0,11.89-1.26,16.81-5.12v-4.73
		c-5.12,1.74-9.95,2.42-13.53,2.42c-10.73,0-15.56-6.38-15.75-17.49h29.18L393.64,335.71z M315.18,301.31
		c7.44,0,12.08,4.54,12.08,12.27c0,9.47-4.64,13.62-13.62,13.62h-7.25v-25.9H315.18z M323.49,331.36
		c9.08-2.03,15.36-8.6,15.36-18.36c0-11.6-8.89-16.52-20.58-16.52h-30.24v3.96c2.8,0.29,4.35,0.19,5.7,0.58
		c1.84,0.48,2.61,2.13,2.61,4.83v48.22c0,2.71-0.77,4.35-2.61,4.83c-1.35,0.39-3.87,0.48-5.7,0.58v3.96h27.64v-3.96
		c-2.71-0.19-5.12-0.19-6.67-0.58c-1.84-0.48-2.61-2.13-2.61-4.83v-22.03h5.89l22.32,31.4h16.04l0.29-3.87
		c-5.31-0.58-8.6-2.32-12.37-7.44L323.49,331.36z M232.95,357.35c-5.6,0-7.83-2.71-7.83-6.96c0-4.06,3.29-5.8,10.44-7.63l6.47-1.64
		v13.82C239.81,356.19,236.14,357.35,232.95,357.35 M257.5,360.34c-4.15,0-6.67-1.26-6.67-6.09v-22.51
		c0-11.69-5.41-15.85-14.01-15.85c-6.18,0-13.82,1.84-19.42,4.73v4.44c4.35-0.97,10.34-1.84,14.59-1.84
		c7.73,0,10.05,2.71,10.05,11.11v2.22l-11.89,2.9c-9.76,2.42-14.01,6.86-14.01,13.43c0,7.25,5.41,11.5,11.98,11.5
		c5.22,0,10.82-2.8,13.91-7.34c0.1,4.44,1.35,7.44,8.5,7.44c3.09,0,6.18-0.58,8.5-1.55v-2.71
		C258.46,360.34,257.98,360.34,257.5,360.34 M192.18,319.76c4.73,0.58,7.25,3.48,4.93,8.89l-9.37,22.22l-9.86-26.48
		c-0.97-2.71,1.16-4.64,4.93-4.64v-2.8h-21.16v2.8c2.61,0.39,5.02,1.74,6.47,5.22l16.04,39.23h3.58l15.85-37.49
		c1.45-3.38,3.96-6.18,7.34-6.96v-2.8h-18.75V319.76z M133.33,357.35c-5.6,0-7.83-2.71-7.83-6.96c0-4.06,3.29-5.8,10.44-7.63
		l6.47-1.64v13.82C140.19,356.19,136.52,357.35,133.33,357.35 M157.88,360.34c-4.15,0-6.67-1.26-6.67-6.09v-22.51
		c0-11.69-5.41-15.85-14.01-15.85c-6.18,0-13.82,1.84-19.42,4.73v4.44c4.35-0.97,10.34-1.84,14.59-1.84
		c7.73,0,10.05,2.71,10.05,11.11v2.22l-11.89,2.9c-9.76,2.42-14.01,6.86-14.01,13.43c0,7.25,5.41,11.5,11.98,11.5
		c5.22,0,10.82-2.8,13.91-7.34c0.1,4.44,1.35,7.44,8.5,7.44c3.09,0,6.18-0.58,8.5-1.55v-2.71
		C158.84,360.34,158.36,360.34,157.88,360.34 M106.09,343.34c-3.67,11.02-6.86,15.27-16.33,15.27H79.71v-52.76
		c0-2.8,0.68-4.25,2.61-4.83c1.06-0.39,4.35-0.48,5.7-0.58v-3.96H61.35v3.96c2.22,0.19,4.83,0.29,5.7,0.58
		c1.84,0.58,2.61,1.93,2.61,4.83v48.22c0,2.8-0.68,4.25-2.61,4.83c-1.06,0.39-4.35,0.48-5.7,0.58v3.96h46.57l1.26-19.71
		L106.09,343.34z"/>
	<path d="M485.63,243.52c-7.05,0-9.18-2.22-9.18-10.24v-27.64h13.91v-3.96h-13.91v-13.53h-1.26l-5.22,3.96v9.57h-8.79v3.96h8.79
		v31.21c0,8.89,5.22,11.6,12.08,11.6c3,0,7.25-1.06,9.66-2.51v-3.29C489.59,243.23,487.27,243.52,485.63,243.52 M452.49,244.01
		c-1.74-0.58-2.42-1.74-2.42-4.64v-24.06c0-11.31-5.31-14.98-12.37-14.98c-6.38,0-11.5,2.9-16.33,7.05v-27.54
		c0-3.67-1.16-5.31-4.64-5.31c-2.42,0-7.15,0.87-9.57,1.55v2.8c0.77-0.1,3.09-0.29,4.35-0.29c2.71,0,3.38,0.87,3.38,3.87v56.91
		c0,2.71-0.58,4.06-2.42,4.54c-1.06,0.39-3.09,0.58-4.54,0.68v2.9h20.29v-2.9c-2.51-0.19-3.58-0.29-4.54-0.58
		c-1.74-0.58-2.32-1.74-2.32-4.64V209.7c4.93-2.42,8.12-3.77,12.56-3.77c7.73,0,9.76,3.67,9.76,10.73v22.71
		c0,2.71-0.58,4.06-2.42,4.54c-1.06,0.39-3.09,0.58-4.54,0.68v2.9h20.29v-2.9C454.52,244.39,453.45,244.3,452.49,244.01
		 M382.05,243.91c9.28,0,12.46,3.48,12.46,8.79c0,7.63-7.05,12.37-15.94,12.37c-9.47,0-14.11-4.25-14.11-10.63
		c0-3.77,1.64-7.44,6.76-10.73c0.97,0.1,1.93,0.19,3.09,0.19H382.05z M378.57,226.03c-6.67,0-11.02-4.25-11.02-11.31
		c0-6.28,4.15-10.73,10.15-10.73c5.51,0,10.82,3.77,10.82,11.4C388.52,221.98,384.75,226.03,378.57,226.03 M403.4,200.62
		c0-1.84-1.45-2.9-3.19-2.9c-3.87,0-3.77,5.41-8.99,6.86c-3.29-2.8-7.92-4.25-12.75-4.25c-10.05,0-17.49,6.86-17.49,15.56
		c0,5.7,3.19,9.66,7.83,11.79c-3,2.13-6.09,5.12-6.09,8.5c0,2.61,1.26,5.51,5.51,6.96c-5.7,2.9-10.24,6.57-10.24,13.14
		c0,6.86,5.89,13.04,17.78,13.04c15.56,0,25.41-10.44,25.41-19.91c0-8.12-7.44-11.31-18.55-11.31h-7.44c-5.02,0-6.96-1.74-6.96-4.35
		c0-1.55,1.06-3.38,3.09-5.12c2.22,0.68,4.73,0.97,7.25,0.97c8.6,0,17.01-5.6,17.01-15.27c0-3-0.87-5.6-2.51-7.63
		C397.02,206.32,403.4,204.49,403.4,200.62 M351.99,247.49v-2.9c-2.51-0.19-3.58-0.29-4.54-0.58c-1.74-0.58-2.42-1.74-2.42-4.64
		v-33.72c0-3.67-1.16-5.31-4.54-5.31c-2.42,0-7.25,0.87-9.76,1.64v2.71c0.77-0.1,3.19-0.29,4.44-0.29c2.71,0,3.48,0.97,3.48,3.96
		v31.02c0,2.71-0.68,4.06-2.42,4.54c-1.16,0.39-3.19,0.58-4.64,0.68v2.9H351.99z M341.37,186.51c2.61,0,5.02-1.74,5.02-5.02
		c0-3.38-2.42-5.02-5.02-5.02s-5.02,1.64-5.02,5.02C336.34,184.77,338.76,186.51,341.37,186.51 M322.33,229.32
		c-2.9,10.63-5.31,14.11-14.69,14.11h-12.85v-54.3c0-2.32,0.19-3.67,1.74-4.44c1.16-0.68,3.96-0.87,6.67-0.97v-3.19h-24.06v3.19
		c3.67,0.29,5.7,0.39,6.76,1.06c1.26,0.68,1.64,1.93,1.64,4.35v49.76c0,2.32-0.19,3.67-1.74,4.44c-1.16,0.68-3.96,0.87-6.67,0.97
		v3.19h44.35l1.26-17.88L322.33,229.32z M224.74,243.04c-5.7,0-8.41-2.9-8.41-7.83c0-4.06,2.42-6.47,10.92-8.7l7.63-1.93v15.17
		C232.57,241.3,228.8,243.04,224.74,243.04 M247.54,245.07c-3.96,0-6.28-1.26-6.28-6.09v-23.77c0-11.4-5.41-14.69-12.85-14.69
		c-5.6,0-12.66,1.74-17.59,4.15v3.38c3.77-0.97,9.37-2.03,14.11-2.03c7.34,0,9.95,2.51,9.95,10.92v3.77l-11.5,2.9
		c-9.76,2.42-13.72,6.86-13.72,13.24c0,7.44,5.31,11.5,11.79,11.5c4.64,0,10.34-2.22,13.43-6.47c0.1,3.96,1.26,6.47,8.12,6.47
		c2.13,0,4.64-0.29,6.76-0.97v-2.42C249.19,245.07,248.22,245.07,247.54,245.07 M187.74,204.2c4.54,0.48,6.47,2.32,4.25,8.12
		l-10.05,25.9l-11.21-29.18c-1.26-3.09,0.48-4.83,4.73-4.83v-2.51h-18.07v2.51c3.09,0.58,4.83,1.55,6.09,4.73l15.94,39.33h2.9
		l14.78-37.1c1.84-4.54,3.48-6.28,7.05-6.96v-2.51h-16.43V204.2z M130.15,243.04c-5.7,0-8.41-2.9-8.41-7.83
		c0-4.06,2.42-6.47,10.92-8.7l7.63-1.93v15.17C137.97,241.3,134.2,243.04,130.15,243.04 M152.95,245.07c-3.96,0-6.28-1.26-6.28-6.09
		v-23.77c0-11.4-5.41-14.69-12.85-14.69c-5.6,0-12.66,1.74-17.59,4.15v3.38c3.77-0.97,9.37-2.03,14.11-2.03
		c7.34,0,9.95,2.51,9.95,10.92v3.77l-11.5,2.9c-9.76,2.42-13.72,6.86-13.72,13.24c0,7.44,5.31,11.5,11.79,11.5
		c4.64,0,10.34-2.22,13.43-6.47c0.1,3.96,1.26,6.47,8.12,6.47c2.13,0,4.64-0.29,6.76-0.97v-2.42
		C154.59,245.07,153.63,245.07,152.95,245.07 M105.22,229.32c-2.9,10.63-5.31,14.11-14.69,14.11H77.68v-54.3
		c0-2.32,0.19-3.67,1.74-4.44c1.16-0.68,3.96-0.87,6.67-0.97v-3.19H62.02v3.19c3.67,0.29,5.7,0.39,6.76,1.06
		c1.26,0.68,1.64,1.93,1.64,4.35v49.76c0,2.32-0.19,3.67-1.74,4.44c-1.16,0.68-3.96,0.87-6.67,0.97v3.19h44.35l1.26-17.88
		L105.22,229.32z"/>
	<path d="M448.14,128.54c-1.64-0.48-2.22-1.55-2.22-4.44V99.36c0-11.31-5.8-14.4-12.37-14.4c-6.47,0-11.4,2.51-16.33,6.28v-1.35
		c0-3.58-1.16-4.93-4.25-4.93c-1.93,0-5.99,0.58-8.02,1.06v2.32c0.68-0.1,3.09-0.29,4.35-0.29c2.61,0,3.38,0.87,3.38,3.87v32.18
		c0,2.71-0.58,3.87-2.22,4.35c-1.16,0.39-3.38,0.58-4.83,0.68v2.42h18.55v-2.42c-2.71-0.19-3.67-0.29-4.73-0.58
		c-1.64-0.48-2.22-1.55-2.22-4.44V94.43c5.51-3.58,9.18-5.31,14.3-5.31c7.73,0,9.86,3.77,9.86,10.73v24.25
		c0,2.71-0.58,3.87-2.22,4.35c-1.16,0.39-3.38,0.58-4.83,0.68v2.42h18.55v-2.42C450.17,128.92,449.2,128.83,448.14,128.54
		 M397.51,131.53v-2.42c-2.71-0.19-3.67-0.29-4.73-0.58c-1.64-0.48-2.22-1.55-2.22-4.44V89.89c0-3.58-1.16-4.93-4.25-4.93
		c-1.93,0-6.09,0.58-8.21,1.06v2.32c0.68-0.1,3.19-0.29,4.54-0.29c2.61,0,3.38,0.87,3.38,3.87v32.18c0,2.71-0.58,3.87-2.22,4.35
		c-1.16,0.39-3.38,0.58-4.83,0.68v2.42H397.51z M387.65,70.56c2.13,0,4.06-1.35,4.06-4.06c0-2.8-1.93-4.06-4.06-4.06
		c-2.13,0-4.06,1.26-4.06,4.06C383.59,69.21,385.52,70.56,387.65,70.56 M367.65,128.54c-1.64-0.48-2.22-1.55-2.22-4.44V99.36
		c0-11.31-5.8-14.4-12.37-14.4c-6.47,0-11.4,3-16.33,7.05V63.8c0-3.58-1.16-4.93-4.25-4.93c-1.93,0-5.99,0.58-8.02,1.06v2.32
		c0.68-0.1,3.09-0.29,4.35-0.29c2.61,0,3.38,0.87,3.38,3.87v58.27c0,2.71-0.58,3.87-2.22,4.35c-1.16,0.39-3.38,0.58-4.83,0.68v2.42
		h18.55v-2.42c-2.71-0.19-3.67-0.29-4.73-0.58c-1.64-0.48-2.22-1.55-2.22-4.44V94.24c5.6-3.38,9.18-5.12,14.3-5.12
		c7.73,0,9.86,3.77,9.86,10.73v24.25c0,2.71-0.58,3.87-2.22,4.35c-1.16,0.39-3.38,0.58-4.83,0.68v2.42h18.55v-2.42
		C369.68,128.92,368.71,128.83,367.65,128.54 M269.77,77.91h2.13c1.35-8.41,3-9.95,10.63-9.95h9.76v55.56c0,2.03,0.1,3.19-1.06,4.15
		c-1.26,0.97-3.67,1.16-7.44,1.26v2.61h22.03v-2.61c-4.83-0.29-6.38-0.39-7.54-1.35c-0.87-0.77-0.97-2.03-0.97-4.06V67.95h9.76
		c7.73,0,9.76,1.55,10.63,9.95h2.13V64.57h-50.05V77.91z M218.27,128.34c-5.7,0-8.79-3.09-8.79-8.5c0-3.96,1.74-6.96,11.31-9.47
		l8.5-2.22v16.23C226.87,126.03,223.19,128.34,218.27,128.34 M239.81,129.6c-3.87,0-5.99-1.16-5.99-5.99V98.78
		c0-11.11-5.41-13.82-11.98-13.82c-5.12,0-11.79,1.74-16.14,3.77v2.61c3.29-0.97,8.6-2.32,13.72-2.32c7.05,0,9.86,2.51,9.86,10.92
		v4.93l-11.21,2.8c-9.66,2.42-13.43,6.86-13.43,13.14c0,7.54,5.22,11.6,11.6,11.6c4.15,0,9.95-1.84,13.04-5.7
		c0.19,3.38,1.35,5.6,7.83,5.6c1.45,0,3.38-0.1,5.51-0.58v-2.22C241.94,129.6,240.59,129.6,239.81,129.6 M184.16,88.53
		c4.44,0.39,5.89,1.35,3.87,7.44l-10.73,28.89l-12.27-31.31c-1.35-3.38,0-5.02,4.64-5.02v-2.22h-15.56v2.22
		c3.38,0.77,4.54,1.45,5.8,4.44l15.75,39.33h2.32l14.11-36.81c2.03-5.41,3.09-6.38,6.67-6.96v-2.22h-14.59V88.53z M127.53,128.34
		c-5.7,0-8.79-3.09-8.79-8.5c0-3.96,1.74-6.96,11.31-9.47l8.5-2.22v16.23C136.13,126.03,132.46,128.34,127.53,128.34 M149.08,129.6
		c-3.87,0-5.99-1.16-5.99-5.99V98.78c0-11.11-5.41-13.82-11.98-13.82c-5.12,0-11.79,1.74-16.14,3.77v2.61
		c3.29-0.97,8.6-2.32,13.72-2.32c7.05,0,9.86,2.51,9.86,10.92v4.93l-11.21,2.8c-9.66,2.42-13.43,6.86-13.43,13.14
		c0,7.54,5.22,11.6,11.6,11.6c4.15,0,9.95-1.84,13.04-5.7c0.19,3.38,1.35,5.6,7.83,5.6c1.45,0,3.38-0.1,5.51-0.58v-2.22
		C151.21,129.6,149.85,129.6,149.08,129.6 M104.54,114.82c-2.22,10.44-4.06,13.24-13.43,13.24H76.13V72.59
		c0-2.03-0.19-3.19,1.06-4.15c1.26-0.97,3.67-1.16,7.44-1.26v-2.61H62.6v2.61c4.83,0.29,6.38,0.39,7.54,1.35
		c0.87,0.77,0.97,2.03,0.97,4.06v50.92c0,2.03,0.1,3.19-1.06,4.15c-1.26,0.97-3.67,1.16-7.44,1.26v2.61h42.61l1.26-16.43
		L104.54,114.82z"/>
	<path class="st0" d="M1315.83,678.63c4.54,0,7.73-2.9,7.73-7.73c0-4.15-2.51-9.37-12.95-9.37c-19.13,0-33.43,17.68-33.43,34.69
		c0,9.66,4.54,16.52,15.27,16.52c11.79,0,20.19-8.21,25.22-14.3l-1.35-2.51c-6.09,4.44-11.6,7.25-16.04,7.25
		c-4.93,0-6.38-3.48-6.38-10.73c0-12.85,4.54-26.28,11.31-26.28c3.48,0,3.48,3.67,3.58,5.41
		C1308.87,673.32,1309.74,678.63,1315.83,678.63 M1262.68,702.11l8.02-33.63c0.97-3.87-0.68-6.96-6.47-6.96
		c-5.99,0-14.3,4.44-19.81,7.54l0.48,3.38c2.61-1.06,5.41-2.22,6.67-2.22c1.45,0,2.13,1.06,1.35,4.06l-6.57,26.38
		c-2.03,8.12,0.48,12.08,7.25,12.08c6.18,0,13.33-4.15,19.33-11.31l-1.93-2.42c-3.19,3.67-5.31,5.12-7.25,5.12
		C1262.87,704.14,1262.29,703.37,1262.68,702.11 M1258.43,648.49c0,4.15,3.09,7.25,7.34,7.25c5.41,0,10.44-5.12,10.44-10.53
		c0-4.15-3.09-7.25-7.34-7.25C1263.45,637.95,1258.43,643.07,1258.43,648.49 M1228.38,702.11l13.53-57.2
		c0.97-4.06-0.97-6.96-6.18-6.96c-6.38,0-14.2,4.25-20.1,7.54l0.48,3.38c2.61-1.06,5.41-2.22,6.76-2.22c1.55,0,1.93,1.35,1.26,4.06
		l-12.08,49.96c-1.93,7.92,0.39,12.08,6.96,12.08c6.47,0,13.43-3.96,19.62-11.31l-1.93-2.42c-3.19,3.67-5.41,5.12-7.05,5.12
		C1228.48,704.14,1227.99,703.37,1228.38,702.11 M1167.89,694.58c0-11.79,6.86-27.64,13.33-27.64c2.51,0,4.35,1.93,5.99,4.83
		l-3.38,12.85c-4.83,9.47-9.66,14.78-13.53,14.78C1168.67,699.41,1167.89,697.47,1167.89,694.58 M1195.82,701.82l10.53-40.29h-2.42
		l-6.96,2.32c-3.38-1.35-7.44-2.32-11.79-2.32c-16.62,0-33.72,17.3-33.72,36.43c0,11.6,4.25,14.4,10.44,14.4
		c8.31,0,15.17-8.6,21.55-20.97h0.29l-2.9,11.11c-1.06,4.06-1.06,10.24,6.47,10.24c5.41,0,13.04-4.25,18.84-11.21l-2.03-2.51
		c-2.61,2.71-4.73,5.12-7.05,5.12C1196.3,704.14,1195.34,703.66,1195.82,701.82 M1114.36,699.41c-0.58,2.42-0.77,4.54-0.39,6.28
		c0.87,4.64,4.93,7.05,11.4,7.05c8.89,0,16.33-4.93,22.32-11.02l-1.74-2.8c-4.93,2.9-7.15,3.87-11.21,3.87c-2.32,0-3-1.74-3-3.87
		c0-2.03,0.58-4.44,0.87-5.6l6.38-25.51h12.27l1.26-4.83h-12.27l3.58-14.49h-1.45l-16.33,5.02l-2.42,9.47h-9.86l-1.26,4.83h9.86
		L1114.36,699.41z M1094.65,702.21l12.08-48.8c0.58-2.32,1.74-3.87,3.38-4.64c1.06-0.48,2.13-0.68,3.38-0.77l0.97-3.67h-29.57
		l-0.97,3.67c1.26,0.1,2.13,0.39,2.9,0.87c1.26,0.87,1.74,2.22,1.16,4.54l-12.08,48.8c-0.58,2.32-1.74,3.87-3.29,4.64
		c-1.06,0.48-2.13,0.68-3.38,0.77l-0.97,3.67h29.47l0.97-3.67c-1.26-0.1-2.13-0.39-2.9-0.87
		C1094.55,705.88,1094.07,704.53,1094.65,702.21 M1022.86,709.17c-4.25,6.09-11.02,9.37-21.93,9.37c-5.51,0-7.25,3.96-7.25,7.34
		c0,3.58,2.8,6.86,7.15,6.86c12.85,0,21.64-12.08,27.92-22.22c10.53-17.01,17.3-37.97,18.75-46.57l-0.58-0.97h-17.2
		c0,6.18,0,11.98-0.29,17.2c-3.86,3.87-8.31,8.12-12.27,11.89l1.55-23.09c0.39-5.6-2.42-7.44-7.54-7.44
		c-5.7,0-18.84,7.54-18.84,7.54l0.48,3.38c2.32-1.16,6.18-2.13,7.54-2.13c1.06,0,1.74,0.68,1.74,2.03l-0.58,38.07h3.58
		c7.73-7.73,16.52-16.33,24.06-24.25C1028.37,695.93,1026.63,703.66,1022.86,709.17 M982.86,661.53c-4.35,0-7.83,2.13-8.02,7.54
		c-0.29,8.7-0.77,18.75-8.6,28.41l-3.77-28.5c-0.77-5.89-2.51-7.44-6.38-7.44c-8.12,0-19.62,6.96-19.62,6.96l0.87,3.48
		c2.32-1.16,5.31-2.51,6.67-2.51c1.06,0,1.55,0.77,1.74,2.03l6.38,40.58h3.58c17.01-14.3,34.59-32.47,34.59-43.48
		C990.3,664.62,988.07,661.53,982.86,661.53 M892.9,694.58c0-11.79,6.86-27.64,13.33-27.64c2.51,0,4.35,1.93,5.99,4.83l-3.38,12.85
		c-4.83,9.47-9.66,14.78-13.53,14.78C893.67,699.41,892.9,697.47,892.9,694.58 M920.82,701.82l10.53-40.29h-2.42l-6.96,2.32
		c-3.38-1.35-7.44-2.32-11.79-2.32c-16.62,0-33.72,17.3-33.72,36.43c0,11.6,4.25,14.4,10.44,14.4c8.31,0,15.17-8.6,21.55-20.97h0.29
		l-2.9,11.11c-1.06,4.06-1.06,10.24,6.47,10.24c5.41,0,13.04-4.25,18.84-11.21l-2.03-2.51c-2.61,2.71-4.73,5.12-7.05,5.12
		C921.31,704.14,920.34,703.66,920.82,701.82 M854.73,666.17c2.51,0,3.96,1.84,3.96,5.41c0,8.02-7.25,11.5-14.78,13.14
		C845.26,675.06,849.32,666.17,854.73,666.17 M869.32,699.02l-1.35-2.51c-6.96,5.02-11.79,7.25-16.23,7.25
		c-6.38,0-8.31-4.44-8.31-12.08c0-1.06,0-2.22,0.1-3.38c21.26-1.45,32.56-8.02,32.56-16.91c0-5.6-4.35-9.86-14.69-9.86
		c-21.06,0-34.69,17.68-34.69,34.69c0,9.66,4.44,16.52,15.36,16.52C853.77,712.74,864.4,705.01,869.32,699.02 M768.25,702.21
		l5.8-23.58h24.64l-5.8,23.58c-0.58,2.32-1.74,3.87-3.38,4.64c-1.06,0.48-2.13,0.68-3.38,0.77l-0.97,3.67h29.57l0.97-3.67
		c-1.26-0.1-2.13-0.39-2.9-0.87c-1.26-0.87-1.74-2.22-1.16-4.54l12.08-48.8c0.58-2.32,1.74-3.87,3.38-4.64
		c1.06-0.48,2.13-0.68,3.38-0.77l0.97-3.67h-29.57l-0.97,3.67c1.26,0.1,2.13,0.39,2.9,0.87c1.26,0.87,1.74,2.22,1.16,4.54
		l-5.02,20.48h-24.64l5.02-20.48c0.58-2.32,1.74-3.87,3.38-4.64c1.06-0.48,2.13-0.68,3.38-0.77l0.97-3.67h-29.57l-0.97,3.67
		c1.26,0.1,2.13,0.39,2.9,0.87c1.26,0.87,1.74,2.22,1.16,4.54l-12.08,48.8c-0.58,2.32-1.74,3.87-3.29,4.64
		c-1.06,0.48-2.13,0.68-3.38,0.77l-0.97,3.67h29.47l0.97-3.67c-1.26-0.1-2.13-0.39-2.9-0.87
		C768.16,705.88,767.67,704.53,768.25,702.21"/>
	<path class="st0" d="M1206.25,561.52c4.16,0,6.47-2.9,6.47-6.76c0-4.25-3.58-8.41-12.46-8.41c-18.17,0-31.02,18.17-31.02,34.4
		c0,9.18,3.96,16.04,14.49,16.04c10.24,0,17.68-6.67,22.71-12.66l-1.35-2.8c-5.8,4.83-10.63,7.34-15.07,7.34
		c-5.8,0-7.05-4.06-7.05-10.82c0-12.08,4.54-26.86,12.85-26.86c3.48,0,3.86,3,4.35,4.73
		C1200.55,557.56,1201.42,561.52,1206.25,561.52 M1153.69,586.35l8.02-33.05c0.97-3.96-0.19-6.96-5.31-6.96
		c-4.73,0-11.5,3.19-17.2,6.67l0.29,3.38c2.61-1.26,5.41-2.42,6.76-2.42s1.93,0.97,1.26,3.77l-7.05,28.5
		c-1.74,6.67,0.29,10.53,5.7,10.53c4.93,0,11.21-3.58,17.3-10.82l-1.64-2.61c-3.48,3.58-5.6,5.02-7.25,5.02
		C1153.79,588.38,1153.3,587.61,1153.69,586.35 M1152.63,532.15c0,3.48,2.61,6.18,6.18,6.18c4.64,0,8.89-4.35,8.89-8.89
		c0-3.58-2.61-6.28-6.18-6.28C1156.88,523.16,1152.63,527.51,1152.63,532.15 M1121.8,586.06l13.82-57.3
		c0.97-4.06-0.58-6.76-5.31-6.76c-5.12,0-11.6,3.19-17.2,6.67l0.29,3.38c2.51-1.16,5.31-2.42,6.76-2.42c1.45,0,1.93,1.16,1.35,3.77
		l-12.95,52.85c-1.64,6.57,0.19,10.53,5.51,10.53c5.12,0,11.21-3.48,17.49-10.82l-1.64-2.61c-2.9,3-5.41,4.83-7.05,4.93
		C1121.8,588.38,1121.32,587.71,1121.8,586.06 M1064.31,579.98c0-11.02,6.38-28.31,15.27-28.31c2.61,0,4.93,1.74,6.67,4.15
		l-2.9,11.89c-5.7,10.34-11.79,17.97-16.14,17.97C1065.28,585.68,1064.31,583.65,1064.31,579.98 M1091.75,585.87l10.24-39.52h-2.03
		l-6.57,2.13c-2.9-1.26-6.38-2.13-10.05-2.13c-17.2,0-32.66,18.55-32.66,36.23c0,10.53,4.25,13.82,10.05,13.82
		c7.83,0,14.78-8.5,21.45-20.48h0.29l-3.29,11.5c-1.16,4.15-0.58,9.37,5.31,9.37c4.44,0,11.31-3.67,17.3-10.82l-1.84-2.61
		c-2.61,2.51-5.22,5.02-7.25,5.02C1091.94,588.38,1091.27,587.71,1091.75,585.87 M1016.09,583.46c-0.48,2.22-0.77,4.15-0.48,5.89
		c0.48,4.83,4.06,7.25,10.05,7.25c7.34,0,13.91-4.25,19.91-9.86l-1.74-2.8c-4.93,2.8-7.63,3.87-11.02,3.87c-2.22,0-3-1.55-3-3.77
		c0-1.84,0.48-4.06,0.87-5.7l6.47-25.8h12.66l1.26-4.83h-12.75l3.67-14.4h-1.45l-12.95,5.02l-2.42,9.37h-9.66l-1.26,4.83h9.66
		L1016.09,583.46z M994.84,586.16l11.98-48.6c0.68-2.51,1.74-3.96,3.58-4.73c1.06-0.39,3.09-0.58,4.35-0.68l0.97-3.77h-28.02
		l-0.97,3.77c1.55,0.19,3.09,0.39,3.87,0.77c1.45,0.77,1.93,2.13,1.26,4.64l-11.98,48.6c-0.68,2.51-1.74,3.96-3.58,4.73
		c-1.06,0.39-3,0.58-4.25,0.68l-1.06,3.77h28.02l0.97-3.77c-1.64-0.19-3.19-0.39-3.96-0.77
		C994.64,590.03,994.16,588.67,994.84,586.16 M908.16,579.78c0-10.82,6.28-28.12,15.36-28.12c2.61,0,4.73,1.55,6.57,3.77L927.01,568
		c-5.6,10.24-11.79,17.68-15.85,17.68C909.13,585.68,908.16,583.94,908.16,579.78 M935.41,585.87l14.3-57.11
		c0.97-3.96-0.48-6.76-5.31-6.76c-5.22,0-11.69,3.19-17.3,6.67l0.29,3.38c2.61-1.16,5.41-2.42,6.86-2.42c1.45,0,1.93,1.16,1.26,3.77
		l-3.29,13.43c-1.64-0.29-3.29-0.48-4.93-0.48c-17.39,0-32.47,18.36-32.47,36.81c0,10.05,4.54,13.24,9.47,13.24
		c8.12,0,14.98-8.41,21.55-20.29h0.29l-3.09,11.31c-1.16,4.15-0.58,9.37,5.12,9.37c4.93,0,11.21-3.87,17.1-10.73l-1.64-2.71
		c-2.32,2.22-4.93,4.83-6.86,4.93C935.8,588.38,934.93,587.9,935.41,585.87 M879.86,586.06l13.82-57.3
		c0.97-4.06-0.58-6.76-5.31-6.76c-5.12,0-11.6,3.19-17.2,6.67l0.29,3.38c2.51-1.16,5.31-2.42,6.76-2.42c1.45,0,1.93,1.16,1.35,3.77
		l-12.95,52.85c-1.64,6.57,0.2,10.53,5.51,10.53c5.12,0,11.21-3.48,17.49-10.82l-1.64-2.61c-2.9,3-5.41,4.83-7.05,4.93
		C879.86,588.38,879.37,587.71,879.86,586.06 M831.16,591.57c-3.67,0-4.83-4.15-4.83-9.28c0-11.02,5.7-31.21,14.78-31.21
		c3.67,0,5.22,2.8,5.22,8.99C846.33,573.79,838.31,591.57,831.16,591.57 M860.63,563.16c0-10.53-6.38-16.81-16.81-16.81
		c-16.91,0-31.98,16.23-31.98,33.24c0,10.63,5.8,17.39,16.43,17.39C845.26,596.98,860.63,579.69,860.63,563.16 M775.02,563.26
		c10.53,0,14.01,4.06,14.01,9.76c0,11.11-9.37,17.3-19.62,17.3h-4.54l6.76-27.06H775.02z M782.65,533.4c6.09,0,9.66,2.42,9.66,8.31
		c0,10.24-7.54,17.01-17.49,17.01h-2.03l6.28-25.32H782.65z M757.91,532.15c1.26,0.1,3,0.39,3.87,0.77
		c1.35,0.58,1.93,2.22,1.26,4.64l-11.98,48.6c-0.68,2.42-1.74,3.96-3.58,4.73c-1.06,0.39-3,0.58-4.25,0.68l-1.06,3.77h31.02
		c14.59,0,31.79-8.02,31.79-23.29c0-6.96-4.73-11.31-16.23-11.89l0.1-0.29c10.15-2.13,20-8.99,20-19.33c0-7.63-6.28-12.17-20-12.17
		h-29.95L757.91,532.15z"/>
	<path class="st0" d="M1350.42,444.51c3.87,0,5.41-2.8,5.41-5.8c0-4.35-4.54-7.63-11.98-7.63c-17.3,0-28.99,18.55-28.99,34.11
		c0,8.79,3.48,15.75,13.82,15.75c9.08,0,15.56-5.41,20.58-11.4l-1.35-3c-5.6,5.02-9.66,7.34-14.3,7.34c-6.38,0-7.54-4.54-7.54-10.92
		c0-11.31,4.64-27.25,14.11-27.25c3.48,0,4.25,2.32,5.02,4.15C1345.88,441.7,1346.75,444.51,1350.42,444.51 M1298.34,470.6
		l8.02-32.66c0.97-3.87,0.29-6.96-4.35-6.96c-3.67,0-9.08,2.22-14.98,6.09l0.1,3.38c2.71-1.45,5.51-2.61,6.96-2.61
		c1.35,0,1.84,0.97,1.16,3.38l-7.44,30.44c-1.45,5.41,0.1,9.08,4.44,9.18c3.77,0.1,9.28-3.09,15.46-10.44l-1.26-2.8
		c-3.77,3.48-5.99,4.93-7.25,4.93C1298.34,472.53,1298.05,471.85,1298.34,470.6 M1299.98,415.81c0,3.09,2.22,5.31,5.31,5.31
		c3.96,0,7.63-3.67,7.63-7.54c0-3.09-2.32-5.31-5.31-5.31C1303.65,408.27,1299.98,411.94,1299.98,415.81 M1268.38,470.11
		l14.11-57.49c0.97-3.96-0.19-6.57-4.44-6.57c-4.15,0-9.57,2.32-14.88,5.89l0.1,3.38c2.51-1.16,5.31-2.51,6.86-2.51
		c1.35,0,1.93,0.97,1.26,3.48l-13.62,55.37c-1.35,5.31,0.1,9.18,4.35,9.18c3.96,0,9.37-3.09,15.56-10.44l-1.26-2.8
		c-2.61,2.51-5.31,4.64-6.96,4.83C1268.38,472.62,1267.9,471.95,1268.38,470.11 M1213.5,465.28c0-10.44,5.89-28.99,16.91-28.99
		c2.8,0,5.31,1.55,7.34,3.58l-2.8,11.6c-6.18,10.44-13.53,20.19-18.17,20.19C1214.66,471.66,1213.5,469.44,1213.5,465.28
		 M1240.56,470.02l9.86-39.04h-1.74l-6.18,2.03c-2.51-1.26-5.31-2.03-8.6-2.03c-17.68,0-31.69,19.71-31.69,36.14
		c0,9.66,4.25,13.33,9.76,13.33c7.44,0,14.49-8.41,21.26-20.1h0.29l-3.38,11.79c-1.35,4.25-0.39,8.7,4.15,8.7
		c3.67,0,9.86-3.19,15.94-10.44l-1.64-2.8c-2.61,2.32-5.6,4.93-7.25,4.93C1240.56,472.53,1240.07,471.85,1240.56,470.02
		 M1169.83,467.5c-0.58,2.03-0.77,3.96-0.68,5.51c0.19,5.02,3.38,7.54,8.89,7.54c6.18,0,11.98-3.67,17.97-8.99l-1.74-2.8
		c-5.02,2.71-8.12,3.96-10.82,3.96c-2.13,0-3-1.35-3-3.77c0-1.64,0.39-3.67,0.87-5.7l6.47-25.99h13.04l1.26-4.83h-13.04l3.58-14.4
		h-1.45l-10.15,5.02l-2.32,9.37h-9.47l-1.26,4.83h9.47L1169.83,467.5z M1147.12,470.11l11.98-48.41c0.68-2.61,1.74-4.15,3.67-4.73
		c1.16-0.48,3.86-0.58,5.22-0.68l0.97-3.87h-26.86l-0.97,3.87c1.93,0.19,4.06,0.29,4.83,0.68c1.64,0.68,2.03,2.03,1.35,4.73
		l-11.98,48.41c-0.77,2.61-1.74,4.15-3.77,4.73c-1.06,0.48-3.77,0.58-5.12,0.68l-0.97,3.87h26.77l0.97-3.87
		c-1.93-0.19-4.06-0.29-4.83-0.68C1146.83,474.17,1146.35,472.82,1147.12,470.11 M1031.95,441.22l-9.47,38.17h10.34l4.06-16.43
		c7.92-14.78,14.98-21.64,18.46-21.64c3.29,0,3.09,2.51,1.35,9.28l-7.15,28.79h10.15l4.25-17.1c7.83-14.3,14.59-20.97,18.17-20.97
		c3.48,0,2.8,3.29,1.26,9.28l-5.51,21.35c-1.16,4.44-0.19,8.79,4.54,8.89c3.87,0.1,9.37-3.09,15.46-10.44l-1.26-2.8
		c-3.67,3.38-5.89,4.93-7.15,4.93c-1.16,0-1.16-1.16-0.58-3.77l5.41-21.45c3-11.89,0.19-16.33-6.09-16.33
		c-6.96,0-13.62,5.89-22.13,21.45h-0.19l1.45-5.51c2.8-11.5,0.58-15.94-5.8-15.94c-7.05,0-13.82,5.99-22.32,21.64h-0.29l3.86-14.69
		c0.97-3.87,0.19-6.96-4.35-6.96c-3.67,0-8.6,2.13-14.78,6.09l0.19,3.38c2.8-1.55,5.51-2.61,6.96-2.61
		C1032.14,437.84,1032.53,438.81,1031.95,441.22 M975.23,441.12l-5.99,23.38c-2.9,11.79-0.19,16.33,6.09,16.33
		c6.76,0,13.53-5.99,22.22-21.93h0.19l-3.29,13.72c-1.06,3.87-0.29,8.21,4.44,8.21c3.87,0,9.47-3.58,15.27-10.44l-1.35-2.8
		c-2.8,2.61-5.51,4.93-7.05,4.93c-0.58,0-1.55-0.48-0.87-3l9.37-37.1h-10.34l-3.96,15.85c-8.02,15.27-14.98,22.42-18.55,22.42
		c-3.48,0-2.8-3.48-1.26-9.47l5.89-22.61c1.16-4.44,0.39-7.54-4.25-7.63c-3.96,0-9.95,2.42-14.88,5.99l0.1,3.38
		c3.58-1.93,5.7-2.61,6.76-2.61C975.03,437.74,975.81,438.71,975.23,441.12 M948.07,470.6l8.02-32.66c0.97-3.87,0.29-6.96-4.35-6.96
		c-3.67,0-9.08,2.22-14.98,6.09l0.1,3.38c2.71-1.45,5.51-2.61,6.96-2.61c1.35,0,1.84,0.97,1.16,3.38l-7.44,30.44
		c-1.45,5.41,0.1,9.08,4.44,9.18c3.77,0.1,9.28-3.09,15.46-10.44l-1.26-2.8c-3.77,3.48-5.99,4.93-7.25,4.93
		C948.07,472.53,947.78,471.85,948.07,470.6 M949.72,415.81c0,3.09,2.22,5.31,5.31,5.31c3.96,0,7.63-3.67,7.63-7.54
		c0-3.09-2.32-5.31-5.31-5.31C953.39,408.27,949.72,411.94,949.72,415.81 M891.74,465.18c0-10.34,5.89-28.89,16.91-28.89
		c2.9,0,5.41,1.35,7.34,3.09l-3,12.27c-6.09,10.34-13.43,20-17.97,20C892.8,471.66,891.74,469.63,891.74,465.18 M918.51,470.02
		l14.3-57.4c0.97-3.96-0.19-6.57-4.44-6.57c-4.15,0-9.57,2.32-14.88,5.89l0.1,3.38c2.51-1.16,5.22-2.51,6.86-2.51
		c1.35,0,1.93,0.97,1.26,3.48l-3.77,15.46c-1.74-0.48-3.67-0.77-5.7-0.77c-17.88,0-31.11,19.71-31.11,36.52
		c0,9.47,4.15,12.95,8.89,12.95c7.54,0,14.49-8.21,21.16-19.62h0.39l-3.29,11.31c-1.16,4.25-0.19,8.7,4.15,8.7
		c3.87,0,9.37-3.19,15.46-10.34l-1.35-2.9c-2.42,2.13-5.02,4.54-6.86,4.83C918.6,472.62,917.93,472.05,918.51,470.02 M861.79,435.62
		c3.29,0,5.12,1.74,5.12,5.6c0,4.73-4.15,10.44-19.04,12.56C849.61,444.6,854.25,435.62,861.79,435.62 M871.74,469.63l-1.35-3
		c-5.89,5.22-10.44,7.34-14.98,7.34c-6.86,0-8.5-4.83-8.5-11.31c0-1.64,0.1-3.48,0.39-5.31c23.29-1.16,31.21-9.66,31.21-17.2
		c0-6.47-5.6-9.18-12.85-9.18c-18.26,0-29.95,19.13-29.95,34.21c0,8.7,3.86,15.65,14.3,15.65
		C858.89,480.84,866.71,475.62,871.74,469.63 M760.23,466.63l10.44-41.55l10.92,40.87h3.67l31.4-40.97l-11.21,45.12
		c-0.68,2.61-1.74,4.15-3.77,4.73c-1.06,0.48-3.77,0.58-5.12,0.68l-0.97,3.87h26.77l1.06-3.87c-2.03-0.19-4.15-0.29-4.93-0.68
		c-1.45-0.68-1.93-2.03-1.26-4.73l11.98-48.41c0.68-2.61,1.74-4.15,3.67-4.73c1.16-0.48,3.86-0.58,5.22-0.68l0.97-3.87h-19.04
		l-30.34,39.23l-10.63-39.23h-20.1l-0.87,3.87c2.32,0.19,4.73,0.58,5.6,1.35c1.45,0.97,1.74,2.61,1.06,5.7l-10.82,43.29
		c-0.97,4.06-3.09,6.38-5.6,7.54c-1.84,0.87-3.87,1.35-5.89,1.64l-0.97,3.58h24.83l0.97-3.58c-2.42-0.29-4.35-0.97-5.7-2.03
		C759.94,472.53,759.36,470.4,760.23,466.63"/>
	<path class="st0" d="M1311.96,327.69c3.58,0,4.54-2.71,4.54-5.02c0-4.44-5.31-6.96-11.69-6.96c-16.52,0-27.25,18.94-27.25,33.92
		c0,8.41,3.09,15.36,13.33,15.36c7.92,0,13.72-4.25,18.75-10.24l-1.35-3.19c-5.41,5.31-8.99,7.44-13.62,7.44
		c-6.96,0-8.02-5.02-8.02-11.02c0-10.73,4.64-27.64,15.27-27.64c3.48,0,4.54,1.84,5.51,3.67
		C1308.29,325.85,1309.16,327.69,1311.96,327.69 M1260.26,354.74l8.02-32.18c0.97-3.96,0.68-6.96-3.48-6.96
		c-2.8,0-7.05,1.35-13.14,5.41v3.38c2.71-1.55,5.51-2.71,7.05-2.71c1.26,0,1.64,0.87,1.06,3.19l-7.83,31.89
		c-1.16,4.44,0,8.02,3.38,8.12c2.9,0.1,7.73-2.71,14.01-10.05l-1.06-3c-3.96,3.38-6.18,4.83-7.25,4.83
		C1260.26,356.67,1260.07,356,1260.26,354.74 M1264.22,299.57c0,2.61,1.93,4.54,4.54,4.54c3.38,0,6.47-3.09,6.47-6.38
		c0-2.61-1.93-4.54-4.54-4.54C1267.32,293.19,1264.22,296.28,1264.22,299.57 M1232.05,354.06l14.4-57.59
		c0.97-3.87,0.1-6.38-3.86-6.38c-3.29,0-7.73,1.55-12.85,5.31v3.38c2.51-1.26,5.22-2.71,6.86-2.71c1.35,0,1.93,0.87,1.35,3.29
		l-14.3,57.4c-1.06,4.35,0,8.12,3.38,8.12c3,0,7.73-2.71,14.01-10.05l-1.06-3c-2.42,2.03-5.31,4.44-6.96,4.73
		C1232.05,356.77,1231.57,356.19,1232.05,354.06 M1179.39,350.3c0-9.86,5.51-29.47,18.26-29.47c2.9,0,5.7,1.35,7.92,3l-2.8,11.79
		c-6.47,10.05-14.78,21.74-19.81,21.74C1180.65,357.35,1179.39,355.03,1179.39,350.3 M1206.06,354.06l9.66-38.46h-1.45l-5.99,1.74
		c-2.13-1.06-4.44-1.74-7.25-1.74c-18.17,0-30.92,20.58-30.92,35.95c0,8.89,4.25,12.95,9.47,12.95c7.05,0,14.2-8.41,21.16-19.71
		h0.29l-3.67,11.98c-1.35,4.35,0,8.12,3.38,8.12c3,0,8.5-2.8,14.78-10.15l-1.55-2.9c-2.61,2.22-5.89,4.83-7.34,4.83
		C1205.86,356.67,1205.57,355.9,1206.06,354.06 M1139.48,351.55c-0.48,1.93-0.77,3.67-0.77,5.22c0,5.12,2.8,7.73,7.92,7.73
		s10.34-3.19,16.23-8.21l-1.74-2.8c-5.02,2.61-8.41,3.96-10.63,3.96c-2.03,0-3-1.16-3-3.67c0-1.45,0.29-3.38,0.87-5.8l6.57-26.19
		h13.24l1.26-4.83h-13.33l3.58-14.3h-1.45l-7.63,5.02l-2.32,9.28h-9.37l-1.26,4.83h9.37L1139.48,351.55z M1115.62,354.06
		l11.98-48.22c0.68-2.8,1.74-4.25,3.77-4.83c1.16-0.39,4.54-0.48,5.89-0.58l0.97-3.96h-25.7l-0.97,3.96
		c2.13,0.19,4.73,0.29,5.51,0.58c1.74,0.58,2.13,1.93,1.45,4.83l-11.98,48.22c-0.77,2.8-1.74,4.25-3.87,4.83
		c-1.16,0.39-4.44,0.48-5.8,0.58l-1.06,3.96h25.7l1.06-3.96c-2.22-0.19-4.83-0.29-5.6-0.58
		C1115.33,358.32,1114.84,356.96,1115.62,354.06 M1045.18,324.79l-9.47,38.65h7.83l5.51-21.64c8.6-13.04,11.21-16.62,19.13-16.91
		c3.87-0.19,5.51-2.71,5.51-5.22c0-3.09-1.74-4.06-4.64-4.06c-4.93,0-8.79,2.8-17.97,17.88h-0.39l3-11.02
		c1.16-3.96,0.68-6.96-3.48-6.96c-2.8,0-7.05,1.35-13.14,5.41v3.38c2.71-1.55,5.51-2.71,7.05-2.71
		C1045.37,321.6,1045.76,322.47,1045.18,324.79 M990.97,350.3c0-9.86,5.51-29.47,18.26-29.47c2.9,0,5.7,1.35,7.92,3l-2.8,11.79
		c-6.47,10.05-14.78,21.74-19.81,21.74C992.23,357.35,990.97,355.03,990.97,350.3 M1017.64,354.06l9.66-38.46h-1.45l-5.99,1.74
		c-2.13-1.06-4.44-1.74-7.25-1.74c-18.17,0-30.92,20.58-30.92,35.95c0,8.89,4.25,12.95,9.47,12.95c7.05,0,14.2-8.41,21.16-19.71
		h0.29l-3.67,11.98c-1.35,4.35,0,8.12,3.38,8.12c3,0,8.5-2.8,14.78-10.15l-1.55-2.9c-2.61,2.22-5.89,4.83-7.34,4.83
		C1017.45,356.67,1017.16,355.9,1017.64,354.06 M964.98,354.06l14.4-57.59c0.97-3.87,0.1-6.38-3.87-6.38
		c-3.29,0-7.73,1.55-12.85,5.31v3.38c2.51-1.26,5.22-2.71,6.86-2.71c1.35,0,1.93,0.87,1.35,3.29l-14.3,57.4
		c-1.06,4.35,0,8.12,3.38,8.12c3,0,7.73-2.71,14.01-10.05l-1.06-3c-2.42,2.03-5.31,4.44-6.96,4.73
		C964.98,356.77,964.49,356.19,964.98,354.06 M912.42,324.88l-6.09,24.16c-2.9,11.5,0.19,15.85,5.89,15.85
		c5.89,0,12.46-5.7,21.26-21.35h0.29l-3.58,13.24c-1.06,3.96-0.68,8.12,3.48,8.12c2.8,0,7.63-2.71,13.91-10.05l-1.06-3
		c-2.8,2.32-5.7,4.83-7.25,4.83c-0.39,0-1.35-0.29-0.68-2.51l9.37-37.2h-7.83l-4.15,16.43c-8.7,15.07-16.04,22.8-19.81,22.8
		c-3.58,0-3.29-2.71-1.55-9.47l6.28-24.74c1.16-4.44-0.48-6.28-3.87-6.38c-2.9-0.1-7.92,1.64-12.85,5.31v3.38
		c3.48-2.03,5.8-2.71,6.86-2.71C912.13,321.6,913.09,322.37,912.42,324.88 M854.05,372.04c0-5.31,3.87-9.08,8.7-11.79
		c0.77,0.19,1.64,0.39,2.61,0.48l8.02,1.16c6.18,0.87,8.7,2.8,8.7,6.09c0,7.44-8.41,11.98-17.78,11.98
		C857.73,379.96,854.05,377.25,854.05,372.04 M874.15,341.41c-4.73,0-6.67-3.09-6.67-7.73c0-6.38,5.02-13.91,11.79-13.91
		c3.86,0,6.47,2.9,6.47,8.12C885.75,334.35,881.11,341.41,874.15,341.41 M861.01,385.27c14.78,0,29.37-9.66,29.37-20.19
		c0-6.38-5.31-8.7-14.4-10.15l-7.73-1.16c-3.19-0.48-4.83-1.55-4.83-3.58c0-1.74,1.16-3.58,3.19-5.41c1.74,0.48,3.77,0.77,5.89,0.77
		c11.6,0,21.84-7.54,21.84-18.07c0-2.51-0.58-4.73-1.64-6.47c4.35-1.45,9.18-3.87,9.18-7.73c0-1.84-1.35-2.8-3.29-2.8
		c-2.51,0-4.06,1.84-4.83,4.35c-0.48,1.55-1.06,3.09-2.32,4.54c-2.32-2.51-5.89-3.77-10.24-3.77c-11.4,0-22.03,8.31-22.03,18.84
		c0,4.44,1.84,7.54,5.02,9.28c-3.96,2.32-8.21,5.7-8.21,9.95c0,2.32,1.16,4.25,4.06,5.6c-7.05,3-14.01,7.44-14.01,14.78
		C846.03,380.44,851.15,385.27,861.01,385.27 M836.27,320.24c3.58,0,5.6,1.64,5.6,5.6c0,2.61-0.97,10.05-20.68,12.17
		C823.23,329.13,828.06,320.24,836.27,320.24 M844.39,354.64l-1.35-3.19c-5.41,5.31-9.86,7.44-14.49,7.44
		c-6.96,0-8.5-5.02-8.5-11.02c0-1.84,0.19-3.96,0.48-6.09c24.35-0.97,30.63-10.34,30.63-17.3c0-6.86-6.09-8.89-12.08-8.89
		c-17.2,0-28.12,19.62-28.12,34.01c0,8.31,3.57,15.27,13.82,15.27C832.7,364.89,839.37,360.63,844.39,354.64 M784.39,301.31
		c6.28,0,9.47,2.8,9.47,9.08c0,9.47-7.44,16.81-17.49,16.81h-7.25l6.47-25.9H784.39z M765.35,305.85l-11.98,48.22
		c-0.68,2.71-1.93,4.35-3.87,4.83c-1.45,0.39-4.15,0.48-5.8,0.58l-1.06,3.96h26.67l1.06-3.96c-2.71-0.19-5.12-0.19-6.57-0.58
		c-1.74-0.48-2.03-2.13-1.35-4.83l5.51-22.03h5.89l14.4,31.4h14.49l1.26-3.87c-5.12-0.58-8.02-2.32-10.44-7.44l-10.24-20.58
		c11.69-2.03,21.45-11.31,21.45-22.32c0-8.79-6.09-12.75-16.14-12.75h-29.28l-0.97,3.96c2.61,0.29,4.35,0.19,5.51,0.58
		C765.64,301.6,766.03,302.95,765.35,305.85"/>
	<path d="M1177.84,210.19c2.51,0,3.29-1.84,3.29-3.58c0-3.58-4.35-6.09-10.24-6.09c-15.75,0-25.51,18.84-25.51,33.05
		c0,8.6,3.38,15.27,12.08,15.27c6.18,0,11.98-3.29,16.81-8.99l-1.16-2.9c-5.12,5.02-9.18,6.86-13.14,6.86
		c-6.76,0-7.92-5.51-7.92-11.5c0-11.69,5.99-27.73,16.72-27.73c3.19,0,4.35,1.45,5.31,2.9
		C1175.04,208.83,1175.72,210.19,1177.84,210.19 M1127.6,238.89l7.73-31.02c1.26-5.02,0.58-7.44-3-7.44c-2.8,0-6.76,1.55-11.5,4.83
		v3c2.8-1.64,5.99-2.9,7.54-2.9c1.16,0,1.45,0.97,0.77,3.77l-7.73,31.4c-1.35,5.12-0.29,8.21,2.71,8.21c2.8,0.1,7.54-2.8,12.75-8.6
		l-0.97-2.8c-3.48,3.09-6.67,5.12-7.92,5.12C1127.11,242.46,1127.02,241.4,1127.6,238.89 M1132.53,183.52
		c0,2.32,1.55,3.87,3.77,3.87c2.9,0,5.51-2.51,5.51-5.51c0-2.32-1.55-3.87-3.87-3.87C1135.04,178.01,1132.53,180.62,1132.53,183.52
		 M1101.02,238.6l14.2-56.91c1.26-5.02,0.29-7.15-3.48-7.15c-3.29,0-7.15,1.55-11.11,4.73v3c2.61-1.55,5.6-2.9,7.25-2.9
		c1.35,0,1.84,0.97,1.16,3.77l-14.3,57.4c-1.26,5.02-0.29,8.21,2.71,8.21c2.9,0,7.54-2.8,12.75-8.6l-0.97-2.8
		c-2.8,2.51-6.28,4.93-7.83,5.02C1100.45,242.46,1100.25,241.49,1101.02,238.6 M1050.3,235.12c0-12.85,8.99-30.34,20.48-30.34
		c2.61,0,5.22,1.26,7.44,2.8l-3.29,13.72c-7.73,12.08-15.85,21.84-20.48,21.84C1051.84,243.14,1050.3,240.33,1050.3,235.12
		 M1076.48,238.6l9.57-38.26h-1.45l-4.54,1.93c-2.03-1.16-4.35-1.84-6.96-1.84c-15.94,0-29.47,19.42-29.47,35.56
		c0,8.41,3.67,12.66,8.7,12.66c6.47,0,14.11-8.31,20.97-19.81h0.19l-3.38,11.69c-1.55,5.02-0.29,8.21,2.71,8.21
		c2.9,0,7.92-2.8,13.04-8.6l-1.06-2.8c-3,2.51-6.57,5.12-8.02,5.12C1075.9,242.46,1075.81,241.4,1076.48,238.6 M1014.84,236.47
		c-0.48,1.84-0.77,3.67-0.77,5.22c0,4.64,2.61,6.96,6.76,6.96c4.35,0,9.18-2.61,14.88-7.44l-1.64-2.51c-4.83,3-8.5,4.54-10.73,4.54
		c-1.84,0-2.71-1.06-2.71-3.48c0-1.64,0.29-3.67,0.97-6.28l6.86-27.83h13.04l0.97-3.96h-13.04l3.38-13.53h-1.45l-5.12,3.48
		l-2.61,10.05h-9.18l-0.97,3.96h9.18L1014.84,236.47z M991.07,238.89l12.46-49.76c0.58-2.32,1.06-3.67,2.8-4.44
		c1.35-0.68,4.15-0.87,6.96-0.97l0.77-3.19h-23.48l-0.77,3.19c3.58,0.29,5.6,0.39,6.38,1.06c1.16,0.68,1.26,1.93,0.68,4.35
		l-12.46,49.76c-0.58,2.32-1.06,3.67-2.8,4.44c-1.35,0.68-4.25,0.87-6.96,0.97l-0.77,3.19h23.48l0.77-3.19
		c-3.58-0.29-5.6-0.39-6.47-1.06C990.58,242.56,990.49,241.3,991.07,238.89 M922.85,236.47c-0.48,1.84-0.77,3.67-0.77,5.22
		c0,4.64,2.61,6.96,6.76,6.96c4.35,0,9.18-2.61,14.88-7.44l-1.64-2.51c-4.83,3-8.5,4.54-10.73,4.54c-1.84,0-2.71-1.06-2.71-3.48
		c0-1.64,0.29-3.67,0.97-6.28l6.86-27.83h13.04l0.97-3.96h-13.04l3.38-13.53h-1.45l-5.12,3.48l-2.61,10.05h-9.18l-0.97,3.96h9.18
		L922.85,236.47z M902.46,238.02l5.7-22.8c2.71-10.34,0.19-14.78-5.22-14.78c-6.38,0-12.75,5.99-21.35,20.77h-0.39l9.95-39.23
		c1.35-5.02,0.58-7.44-3.19-7.44c-3.09,0-6.86,1.55-11.31,4.83v3c2.71-1.64,5.7-3,7.25-3c1.45,0,1.84,1.06,1.06,3.87l-15.85,64.26
		h5.89l4.54-18.07c9.08-14.59,16.81-22.61,20.77-22.61c3.48,0,3.48,3,1.64,10.15l-5.89,23.58c-1.35,5.12-0.39,8.21,2.61,8.21
		c2.9,0.1,7.63-2.8,12.75-8.6l-0.87-2.8c-3.48,3.09-6.67,5.12-8.02,5.12C901.59,242.46,901.69,241.11,902.46,238.02 M823.42,257.15
		c0-5.6,5.8-10.24,11.69-12.75c0.39,0,0.77,0.1,1.16,0.19l7.63,1.26c6.67,1.06,8.21,3.29,8.21,5.89c0,7.73-9.18,13.33-18.26,13.33
		C827,265.07,823.42,261.69,823.42,257.15 M843.52,226.61c-5.02,0-7.15-3.19-7.15-8.02c0-6.76,5.41-14.59,12.66-14.59
		c4.15,0,6.96,3,6.96,8.5C855.99,219.37,850.96,226.61,843.52,226.61 M831.25,269.32c13.91,0,26.96-9.47,26.96-19.62
		c0-4.93-3.38-7.73-12.66-9.28l-7.54-1.16c-3.87-0.68-5.22-1.93-5.22-3.77c0-1.93,1.45-3.87,4.35-6.09
		c1.55,0.48,3.29,0.68,5.22,0.68c10.63,0,20-7.44,20-17.88c0-2.42-0.48-4.54-1.35-6.18c3.87-1.35,8.41-3.96,8.41-7.92
		c0-1.64-0.97-2.51-2.51-2.51c-2.03,0-3.29,1.55-3.96,3.87c-0.48,1.84-1.26,3.48-3.09,4.93c-2.13-2.61-5.41-3.96-9.57-3.96
		c-10.34,0-20.1,8.31-20.1,18.75c0,4.44,1.74,7.44,4.64,9.18c-3.67,2.32-7.73,5.7-7.73,9.57c0,2.42,1.64,4.25,4.83,5.51
		c-7.44,2.9-14.4,8.31-14.4,15.36C817.53,264.3,821.78,269.32,831.25,269.32 M808.64,238.89l7.73-31.02c1.26-5.02,0.58-7.44-3-7.44
		c-2.8,0-6.76,1.55-11.5,4.83v3c2.8-1.64,5.99-2.9,7.54-2.9c1.16,0,1.45,0.97,0.77,3.77l-7.73,31.4c-1.35,5.12-0.29,8.21,2.71,8.21
		c2.8,0.1,7.54-2.8,12.75-8.6l-0.97-2.8c-3.48,3.09-6.67,5.12-7.92,5.12C808.16,242.46,808.06,241.4,808.64,238.89 M813.57,183.52
		c0,2.32,1.55,3.87,3.77,3.87c2.9,0,5.51-2.51,5.51-5.51c0-2.32-1.55-3.87-3.87-3.87C816.08,178.01,813.57,180.62,813.57,183.52
		 M750.47,243.33c-1.35,0.68-4.15,0.87-6.86,0.97l-0.87,3.19h43.87l5.31-17.68l-2.61-0.29c-4.93,10.44-8.02,13.91-17.39,13.91
		h-13.14l13.62-54.3c0.58-2.32,1.06-3.67,2.8-4.44c1.35-0.68,4.15-0.87,6.96-0.97l0.77-3.19h-23.48l-0.77,3.19
		c3.58,0.29,5.6,0.39,6.38,1.06c1.16,0.68,1.26,1.93,0.68,4.35l-12.46,49.76C752.7,241.2,752.21,242.56,750.47,243.33"/>
	<path d="M1140.74,93.08c1.64,0,2.32-1.16,2.32-2.42c0-2.9-3.58-5.51-9.08-5.51c-15.17,0-24.06,18.75-24.06,32.37
		c0,8.79,3.58,15.17,11.02,15.17c4.73,0,10.53-2.51,15.27-7.92l-0.97-2.71c-4.93,4.83-9.28,6.47-12.75,6.47
		c-6.67,0-7.83-5.99-7.83-11.89c0-12.56,6.96-27.93,17.78-27.93c3,0,4.25,1.16,5.22,2.32C1138.61,92.11,1139.19,93.08,1140.74,93.08
		 M1091.75,123.03l7.54-30.15c1.45-5.89,0.48-7.73-2.61-7.73c-2.8,0-6.67,1.64-10.34,4.25v2.71c3-1.74,6.38-3,7.92-3
		c1.16,0,1.45,0.97,0.68,4.15l-7.73,31.02c-1.45,5.7-0.58,8.41,2.13,8.41c2.8,0,7.44-2.9,11.79-7.44l-0.77-2.71
		c-3.19,2.8-7.15,5.31-8.6,5.31C1090.88,127.86,1090.88,126.51,1091.75,123.03 M1097.35,67.57c0,2.03,1.26,3.29,3.29,3.29
		c2.51,0,4.64-2.13,4.64-4.83c0-2.03-1.26-3.29-3.29-3.29C1099.48,62.74,1097.35,64.86,1097.35,67.57 M1066.34,123.03l14.11-56.43
		c1.45-5.89,0.48-7.73-3.09-7.73c-3.29,0-6.67,1.64-9.86,4.25v2.71c2.8-1.74,5.89-3.09,7.54-3.09c1.45,0,1.84,1.06,1.06,4.25
		l-14.3,57.3c-1.45,5.7-0.58,8.41,2.12,8.41c2.8,0,7.44-2.9,11.79-7.44l-0.77-2.71c-3.19,2.8-7.15,5.31-8.6,5.31
		C1065.47,127.86,1065.47,126.51,1066.34,123.03 M1017.16,119.74c0-15.17,11.69-30.92,22.22-30.92c2.22,0,4.64,0.77,7.05,2.42
		l-3.67,15.36c-8.79,13.72-16.62,21.93-20.97,21.93C1018.9,128.54,1017.16,125.45,1017.16,119.74 M1042.96,123.03l9.47-38.07h-1.45
		l-3.38,2.03c-2.03-1.26-4.25-1.84-6.67-1.84c-14.2,0-28.41,18.46-28.41,35.17c0,8.02,3.29,12.37,8.12,12.37
		c6.09,0,14.2-8.21,20.77-19.81h0.19l-3.19,11.4c-1.64,5.7-0.58,8.41,2.13,8.41c2.8,0,7.44-2.9,11.79-7.44l-0.77-2.71
		c-3.19,2.8-7.15,5.31-8.6,5.31C1042.09,127.86,1042.09,126.51,1042.96,123.03 M985.27,121.19c-0.48,1.84-0.77,3.67-0.77,5.22
		c0,4.25,2.42,6.28,5.89,6.28c3.67,0,8.21-2.13,13.72-6.76l-1.55-2.22c-4.73,3.29-8.5,4.93-10.82,4.93c-1.74,0-2.51-0.97-2.51-3.38
		c0-1.74,0.39-3.77,1.06-6.67l7.25-29.08h12.85l0.68-3.19h-12.75l3.19-12.95h-1.45l-3.19,2.22l-2.71,10.73h-9.18l-0.68,3.19h8.99
		L985.27,121.19z M961.6,123.51l12.75-50.92c0.48-2.03,0.58-3.19,2.03-4.15c1.55-0.97,3.96-1.16,7.83-1.26l0.58-2.61h-21.74
		l-0.58,2.61c4.73,0.29,6.28,0.39,7.15,1.35c0.68,0.77,0.48,2.03,0,4.06l-12.75,50.92c-0.48,2.03-0.68,3.19-2.13,4.15
		c-1.45,0.97-3.96,1.16-7.73,1.26l-0.68,2.61h21.74l0.68-2.61c-4.73-0.29-6.28-0.39-7.15-1.35
		C960.92,126.8,961.12,125.54,961.6,123.51 M906.81,123.03l6.09-23.96c2.42-9.37,0.39-13.91-4.83-13.91
		c-6.18,0-13.04,6.38-21.74,20.77h-0.29l3.67-13.04c1.64-5.8,0.58-7.73-2.51-7.73c-2.8,0-6.67,1.64-10.34,4.25v2.71
		c3-1.74,6.38-3,7.92-3c1.16,0,1.45,0.97,0.68,4.15l-9.66,38.26h4.44l4.64-19.23c9.37-14.4,17.01-22.71,21.74-22.71
		c3.77,0,3.67,3.29,1.74,10.73l-6.09,23.96c-1.45,5.7-0.58,8.41,2.13,8.41c2.8,0,7.44-2.9,11.79-7.44l-0.77-2.71
		c-3.19,2.8-7.15,5.31-8.6,5.31C905.94,127.86,905.94,126.51,906.81,123.03 M856.86,123.03l7.54-30.15
		c1.45-5.89,0.48-7.73-2.61-7.73c-2.8,0-6.67,1.64-10.34,4.25v2.71c3-1.74,6.38-3,7.92-3c1.16,0,1.45,0.97,0.68,4.15l-7.73,31.02
		c-1.45,5.7-0.58,8.41,2.13,8.41c2.8,0,7.44-2.9,11.79-7.44l-0.77-2.71c-3.19,2.8-7.15,5.31-8.6,5.31
		C855.99,127.86,855.99,126.51,856.86,123.03 M862.46,67.57c0,2.03,1.26,3.29,3.29,3.29c2.51,0,4.64-2.13,4.64-4.83
		c0-2.03-1.26-3.29-3.29-3.29C864.59,62.74,862.46,64.86,862.46,67.57 M831.83,123.03l6.09-23.96c2.42-9.37,0.39-13.91-4.83-13.91
		c-6.47,0-13.04,6.38-21.64,20.77h-0.39L821.2,66.6c1.55-5.89,0.48-7.73-3.09-7.73c-3.29,0-6.67,1.64-9.86,4.25v2.71
		c2.8-1.74,5.89-3.09,7.54-3.09c1.45,0,1.84,1.06,1.06,4.25l-16.04,64.55h4.44l4.64-19.13c9.47-14.49,17.59-22.8,21.84-22.8
		c3.38,0,3.58,3.29,1.64,10.73l-6.09,23.96c-1.45,5.7-0.58,8.41,2.13,8.41c2.8,0,7.44-2.9,11.79-7.44l-0.77-2.71
		c-3.19,2.8-7.15,5.31-8.6,5.31C830.96,127.86,830.96,126.51,831.83,123.03 M769.51,67.95h9.28l-13.91,55.56
		c-0.48,2.03-0.68,3.19-2.13,4.15c-1.45,0.97-3.96,1.16-7.73,1.26l-0.68,2.61h21.74l0.68-2.61c-4.73-0.29-6.28-0.39-7.15-1.35
		c-0.68-0.77-0.48-2.03,0-4.06l13.91-55.56h9.28c7.73,0,9.37,1.55,8.12,9.95h2.13l3.29-13.33h-48.8l-3.29,13.33h2.13
		C759.85,69.5,761.87,67.95,769.51,67.95"/>
</g>
</svg>
